<svg version="1.1" id="gwd-image_1" xmlns="http://www.w3.org/2000/svg" xmlns:xlink="http://www.w3.org/1999/xlink" x="0px" y="0px" width="580px" height="251px" viewBox="0 0 580 251" enable-background="new 0 0 580 251" xml:space="preserve" is="gwd-image" source="assets/click loans logo.svg" class="gwd-img-1ykf" src="blob:https%3A//www.gstatic.com/cb02a721-bbe4-48d5-a086-4caa8c68a060" data-gwd-node="true" gwd-svg-index="0">
<g data-gwd-node="true">
	<g data-gwd-node="true">
		<path fill-rule="evenodd" clip-rule="evenodd" fill="#2A8ECC" d="M558.834,211.934c0,8.35-6.769,15.118-15.118,15.118h-96.883
			h-76.025h-96.883c-8.349,0-15.118-6.769-15.118-15.117V39.026c0-8.349,6.769-15.118,15.118-15.118h96.883h76.025h96.883
			c8.35,0,15.118,6.769,15.118,15.118V211.934z" data-gwd-node="true"></path>
		<g data-gwd-node="true">
			<path fill-rule="evenodd" clip-rule="evenodd" fill="#374777" d="M208.785,133.487h0.238c1.314-2.387,2.75-4.784,4.185-7.052
				l11.833-17.575h21.878L226,132.53l23.905,34.793h-22.354l-14.105-24.027l-4.662,5.735v18.292H190.61V82.442h18.175V133.487
				L208.785,133.487z M186.523,165.882c-3.229,1.441-9.325,2.636-16.261,2.636c-18.89,0-30.959-11.478-30.959-29.89
				c0-17.092,11.713-31.083,33.47-31.083c4.785,0,10.041,0.838,13.867,2.268l-2.867,13.514c-2.151-0.958-5.378-1.792-10.163-1.792
				c-9.563,0-15.778,6.813-15.661,16.378c0,10.755,7.174,16.376,16.022,16.376c4.302,0,7.651-0.719,10.401-1.797L186.523,165.882
				L186.523,165.882z M115.857,167.323V108.86h18.175v58.463H115.857L115.857,167.323z M134.628,92.602
				c0,5.022-3.825,9.085-9.803,9.085c-5.743,0-9.567-4.063-9.446-9.085c-0.122-5.258,3.703-9.206,9.565-9.206
				C130.803,83.396,134.508,87.343,134.628,92.602L134.628,92.602z M88.941,82.442h18.175v84.881H88.941V82.442L88.941,82.442z
				 M83.891,165.05c-3.349,1.671-10.883,3.468-20.686,3.468c-27.855,0-42.199-17.333-42.199-40.291
				c0-27.495,19.605-42.795,43.993-42.795c9.443,0,16.617,1.912,19.845,3.587l-3.705,14.464c-3.708-1.557-8.848-2.987-15.301-2.987
				c-14.467,0-25.704,8.725-25.704,26.656c0,16.145,9.564,26.299,25.82,26.299c5.5,0,11.599-1.193,15.186-2.628L83.891,165.05z" data-gwd-node="true"></path>
			<path fill-rule="evenodd" clip-rule="evenodd" fill="#FFFFFF" d="M270.671,167.199h50.086v-15.266h-31.96V86.821h-18.125V167.199
				L270.671,167.199z M503.769,164.217c4.413,2.386,11.21,4.174,18.843,4.174c16.696,0,25.163-7.989,25.163-18.961
				c-0.118-8.467-4.651-14.072-15.742-17.889c-7.154-2.385-9.421-3.935-9.421-6.677c0-2.863,2.504-4.651,6.917-4.651
				c4.889,0,10.018,1.909,12.641,3.22l3.102-12.403c-3.578-1.79-9.542-3.459-16.339-3.459c-14.43,0-23.732,8.229-23.732,19.2
				c-0.118,6.799,4.533,13.357,16.696,17.412c6.679,2.146,8.468,3.697,8.468,6.678c0,2.981-2.266,4.771-7.752,4.771
				c-5.367,0-12.283-2.266-15.621-4.294L503.769,164.217L503.769,164.217z M445.095,167.199h18.128v-33.63
				c0-1.671,0.119-3.34,0.597-4.531c1.312-3.34,4.292-6.799,9.302-6.799c6.558,0,9.183,5.128,9.183,12.642v32.318h18.127v-34.465
				c0-17.173-8.944-25.164-20.87-25.164c-9.779,0-15.623,5.605-18.008,9.422h-0.358l-0.835-8.11h-15.741
				c0.239,5.248,0.477,11.33,0.477,18.604V167.199L445.095,167.199z M439.236,132.734c0-13.715-6.082-25.164-25.521-25.164
				c-10.614,0-18.604,2.982-22.659,5.248l3.34,11.568c3.816-2.266,10.137-4.293,16.099-4.293c8.945,0,10.614,4.412,10.614,7.513
				v0.715c-20.631,0-34.225,7.156-34.225,22.301c0,9.303,7.034,17.888,18.842,17.888c6.917,0,12.879-2.503,16.695-7.154h0.357
				l1.074,5.844h16.337c-0.715-3.221-0.954-8.586-0.954-14.073V132.734L439.236,132.734z M421.706,145.972
				c0,1.073-0.12,2.146-0.357,3.1c-1.192,3.697-5.009,6.68-9.422,6.68c-4.054,0-7.154-2.267-7.154-6.917
				c0-6.917,7.394-9.183,16.934-9.183V145.972L421.706,145.972z M353.1,168.51c15.502,0,30.648-9.778,30.648-31.006
				c0-17.65-11.926-29.933-29.694-29.933c-18.842,0-31.246,12.045-31.246,30.887c0,18.842,13.119,30.052,30.173,30.052H353.1
				L353.1,168.51z M353.338,155.512c-7.632,0-11.807-7.513-11.807-17.411c0-8.705,3.34-17.53,11.926-17.53
				c8.229,0,11.567,8.825,11.567,17.411c0,10.495-4.411,17.53-11.567,17.53H353.338z" data-gwd-node="true"></path>
		</g>
	</g>
</g>
</svg>